{
  "accessors": [
    {
      "bufferView": 2,
      "componentType": 5126,
      "count": 232,
      "max": [
        5.44444465637207,
        0.5555557012557983,
        9.888888359069824
      ],
      "min": [
        -5.44444465637207,
        -0.5555557012557983,
        -9.888888359069824
      ],
      "type": "VEC3"
    },
    {
      "bufferView": 2,
      "byteOffset": 2784,
      "componentType": 5126,
      "count": 232,
      "max": [
        1.0,
        1.0,
        1.0
      ],
      "min": [
        -1.0,
        -1.0,
        -1.0
      ],
      "type": "VEC3"
    },
    {
      "bufferView": 1,
      "componentType": 5126,
      "count": 232,
      "max": [
        0.875,
        1.0
      ],
      "min": [
        0.125,
        0.0
      ],
      "type": "VEC2"
    },
    {
      "bufferView": 0,
      "componentType": 5125,
      "count": 360,
      "type": "SCALAR"
    },
    {
      "bufferView": 2,
      "byteOffset": 5568,
      "componentType": 5126,
      "count": 48,
      "max": [
        0.21432597935199738,
        0.555555522441864,
        8.071067810058594
      ],
      "min": [
        -8.071066856384277,
        -0.555556058883667,
        -0.21432580053806305
      ],
      "type": "VEC3"
    },
    {
      "bufferView": 2,
      "byteOffset": 6144,
      "componentType": 5126,
      "count": 48,
      "max": [
        1.0,
        1.0,
        1.0
      ],
      "min": [
        -1.0,
        -1.0,
        -1.0
      ],
      "type": "VEC3"
    },
    {
      "bufferView": 1,
      "byteOffset": 1856,
      "componentType": 5126,
      "count": 48,
      "max": [
        0.875,
        1.0
      ],
      "min": [
        0.125,
        0.0
      ],
      "type": "VEC2"
    },
    {
      "bufferView": 0,
      "byteOffset": 1440,
      "componentType": 5125,
      "count": 72,
      "type": "SCALAR"
    },
    {
      "bufferView": 2,
      "byteOffset": 6720,
      "componentType": 5126,
      "count": 80,
      "max": [
        21.77777862548828,
        0.5555557012557983,
        8.44444465637207
      ],
      "min": [
        19.77777671813965,
        -0.5555557012557983,
        -8.44444465637207
      ],
      "type": "VEC3"
    },
    {
      "bufferView": 2,
      "byteOffset": 7680,
      "componentType": 5126,
      "count": 80,
      "max": [
        1.0,
        1.0,
        0.70710688829422
      ],
      "min": [
        -1.0,
        -1.0,
        -0.7071072459220886
      ],
      "type": "VEC3"
    },
    {
      "bufferView": 1,
      "byteOffset": 2240,
      "componentType": 5126,
      "count": 80,
      "max": [
        0.875,
        1.0
      ],
      "min": [
        0.125,
        0.0
      ],
      "type": "VEC2"
    },
    {
      "bufferView": 0,
      "byteOffset": 1728,
      "componentType": 5125,
      "count": 120,
      "type": "SCALAR"
    },
    {
      "bufferView": 2,
      "byteOffset": 8640,
      "componentType": 5126,
      "count": 188,
      "max": [
        38.111114501953125,
        0.5555557012557983,
        9.888888359069824
      ],
      "min": [
        27.22222328186035,
        -0.5555557012557983,
        -9.888888359069824
      ],
      "type": "VEC3"
    },
    {
      "bufferView": 2,
      "byteOffset": 10896,
      "componentType": 5126,
      "count": 188,
      "max": [
        1.0,
        1.0,
        1.0
      ],
      "min": [
        -1.0,
        -1.0,
        -1.0
      ],
      "type": "VEC3"
    },
    {
      "bufferView": 1,
      "byteOffset": 2880,
      "componentType": 5126,
      "count": 188,
      "max": [
        0.875,
        1.0
      ],
      "min": [
        0.125,
        0.0
      ],
      "type": "VEC2"
    },
    {
      "bufferView": 0,
      "byteOffset": 2208,
      "componentType": 5125,
      "count": 300,
      "type": "SCALAR"
    },
    {
      "bufferView": 2,
      "byteOffset": 13152,
      "componentType": 5126,
      "count": 188,
      "max": [
        54.44444274902344,
        0.5555557012557983,
        9.888888359069824
      ],
      "min": [
        45.0,
        -0.5555557012557983,
        -9.888888359069824
      ],
      "type": "VEC3"
    },
    {
      "bufferView": 2,
      "byteOffset": 15408,
      "componentType": 5126,
      "count": 188,
      "max": [
        1.0,
        1.0,
        1.0
      ],
      "min": [
        -1.0,
        -1.0,
        -1.0
      ],
      "type": "VEC3"
    },
    {
      "bufferView": 1,
      "byteOffset": 4384,
      "componentType": 5126,
      "count": 188,
      "max": [
        0.875,
        1.0
      ],
      "min": [
        0.125,
        0.0
      ],
      "type": "VEC2"
    },
    {
      "bufferView": 0,
      "byteOffset": 3408,
      "componentType": 5125,
      "count": 300,
      "type": "SCALAR"
    },
    {
      "bufferView": 2,
      "byteOffset": 17664,
      "componentType": 5126,
      "count": 156,
      "max": [
        70.77777862548828,
        0.5555557012557983,
        8.44444465637207
      ],
      "min": [
        59.888893127441406,
        -0.5555557012557983,
        -8.44444465637207
      ],
      "type": "VEC3"
    },
    {
      "bufferView": 2,
      "byteOffset": 19536,
      "componentType": 5126,
      "count": 156,
      "max": [
        1.0,
        1.0,
        1.0
      ],
      "min": [
        -1.0,
        -1.0,
        -1.0
      ],
      "type": "VEC3"
    },
    {
      "bufferView": 1,
      "byteOffset": 5888,
      "componentType": 5126,
      "count": 156,
      "max": [
        0.875,
        1.0
      ],
      "min": [
        0.125,
        0.0
      ],
      "type": "VEC2"
    },
    {
      "bufferView": 0,
      "byteOffset": 4608,
      "componentType": 5125,
      "count": 240,
      "type": "SCALAR"
    },
    {
      "bufferView": 2,
      "byteOffset": 21408,
      "componentType": 5126,
      "count": 188,
      "max": [
        87.11111450195313,
        0.5555557012557983,
        9.888888359069824
      ],
      "min": [
        76.22222900390625,
        -0.5555557012557983,
        -9.888888359069824
      ],
      "type": "VEC3"
    },
    {
      "bufferView": 2,
      "byteOffset": 23664,
      "componentType": 5126,
      "count": 188,
      "max": [
        1.0,
        1.0,
        1.0
      ],
      "min": [
        -1.0,
        -1.0,
        -1.0
      ],
      "type": "VEC3"
    },
    {
      "bufferView": 1,
      "byteOffset": 7136,
      "componentType": 5126,
      "count": 188,
      "max": [
        0.875,
        1.0
      ],
      "min": [
        0.125,
        0.0
      ],
      "type": "VEC2"
    },
    {
      "bufferView": 0,
      "byteOffset": 5568,
      "componentType": 5125,
      "count": 300,
      "type": "SCALAR"
    },
    {
      "bufferView": 2,
      "byteOffset": 25920,
      "componentType": 5126,
      "count": 228,
      "max": [
        103.44445037841797,
        0.5555557012557983,
        9.888888359069824
      ],
      "min": [
        92.5555648803711,
        -0.5555557012557983,
        -9.888888359069824
      ],
      "type": "VEC3"
    },
    {
      "bufferView": 2,
      "byteOffset": 28656,
      "componentType": 5126,
      "count": 228,
      "max": [
        1.0,
        1.0,
        1.0
      ],
      "min": [
        -1.0,
        -1.0,
        -1.0
      ],
      "type": "VEC3"
    },
    {
      "bufferView": 1,
      "byteOffset": 8640,
      "componentType": 5126,
      "count": 228,
      "max": [
        0.875,
        1.0
      ],
      "min": [
        0.125,
        0.0
      ],
      "type": "VEC2"
    },
    {
      "bufferView": 0,
      "byteOffset": 6768,
      "componentType": 5125,
      "count": 360,
      "type": "SCALAR"
    },
    {
      "bufferView": 2,
      "byteOffset": 31392,
      "componentType": 5126,
      "count": 116,
      "max": [
        119.77778625488281,
        0.5555557012557983,
        9.888888359069824
      ],
      "min": [
        110.33334350585938,
        -0.5555557012557983,
        -8.44444465637207
      ],
      "type": "VEC3"
    },
    {
      "bufferView": 2,
      "byteOffset": 32784,
      "componentType": 5126,
      "count": 116,
      "max": [
        1.0,
        1.0,
        1.0
      ],
      "min": [
        -1.0,
        -1.0,
        -1.0
      ],
      "type": "VEC3"
    },
    {
      "bufferView": 1,
      "byteOffset": 10464,
      "componentType": 5126,
      "count": 116,
      "max": [
        0.875,
        1.0
      ],
      "min": [
        0.125,
        0.0
      ],
      "type": "VEC2"
    },
    {
      "bufferView": 0,
      "byteOffset": 8208,
      "componentType": 5125,
      "count": 180,
      "type": "SCALAR"
    },
    {
      "bufferView": 2,
      "byteOffset": 34176,
      "componentType": 5126,
      "count": 268,
      "max": [
        136.11111450195313,
        0.5555557012557983,
        9.888888359069824
      ],
      "min": [
        125.22222900390625,
        -0.5555557012557983,
        -9.888888359069824
      ],
      "type": "VEC3"
    },
    {
      "bufferView": 2,
      "byteOffset": 37392,
      "componentType": 5126,
      "count": 268,
      "max": [
        1.0,
        1.0,
        1.0
      ],
      "min": [
        -1.0,
        -1.0,
        -1.0
      ],
      "type": "VEC3"
    },
    {
      "bufferView": 1,
      "byteOffset": 11392,
      "componentType": 5126,
      "count": 268,
      "max": [
        0.875,
        1.0
      ],
      "min": [
        0.125,
        0.0
      ],
      "type": "VEC2"
    },
    {
      "bufferView": 0,
      "byteOffset": 8928,
      "componentType": 5125,
      "count": 420,
      "type": "SCALAR"
    },
    {
      "bufferView": 2,
      "byteOffset": 40608,
      "componentType": 5126,
      "count": 228,
      "max": [
        152.44444274902344,
        0.5555557012557983,
        9.888888359069824
      ],
      "min": [
        141.55555725097656,
        -0.5555557012557983,
        -9.888888359069824
      ],
      "type": "VEC3"
    },
    {
      "bufferView": 2,
      "byteOffset": 43344,
      "componentType": 5126,
      "count": 228,
      "max": [
        1.0,
        1.0,
        1.0
      ],
      "min": [
        -1.0,
        -1.0,
        -1.0
      ],
      "type": "VEC3"
    },
    {
      "bufferView": 1,
      "byteOffset": 13536,
      "componentType": 5126,
      "count": 228,
      "max": [
        0.875,
        1.0
      ],
      "min": [
        0.125,
        0.0
      ],
      "type": "VEC2"
    },
    {
      "bufferView": 0,
      "byteOffset": 10608,
      "componentType": 5125,
      "count": 360,
      "type": "SCALAR"
    },
    {
      "bufferView": 2,
      "byteOffset": 46080,
      "componentType": 5126,
      "count": 24,
      "max": [
        0.21432597935199738,
        0.555555522441864,
        1.7856742143630981
      ],
      "min": [
        -1.7856740951538086,
        -0.5555557012557983,
        -0.21432580053806305
      ],
      "type": "VEC3"
    },
    {
      "bufferView": 2,
      "byteOffset": 46368,
      "componentType": 5126,
      "count": 24,
      "max": [
        1.0,
        1.0,
        1.0
      ],
      "min": [
        -1.0,
        -1.0,
        -1.0
      ],
      "type": "VEC3"
    },
    {
      "bufferView": 1,
      "byteOffset": 15360,
      "componentType": 5126,
      "count": 24,
      "max": [
        0.875,
        1.0
      ],
      "min": [
        0.125,
        0.0
      ],
      "type": "VEC2"
    },
    {
      "bufferView": 0,
      "byteOffset": 12048,
      "componentType": 5125,
      "count": 36,
      "type": "SCALAR"
    }
  ],
  "asset": {
    "extras": {
      "author": "FRH4D (https://sketchfab.com/FRH4D)",
      "license": "CC-BY-4.0 (http://creativecommons.org/licenses/by/4.0/)",
      "source": "https://sketchfab.com/3d-models/digital-numbers-00f3f46893064025a45cc43403bb4d53",
      "title": "Digital numbers"
    },
    "generator": "Sketchfab-14.55.0",
    "version": "2.0"
  },
  "bufferViews": [
    {
      "buffer": 0,
      "byteLength": 12192,
      "name": "floatBufferViews",
      "target": 34963
    },
    {
      "buffer": 0,
      "byteLength": 15552,
      "byteOffset": 12192,
      "byteStride": 8,
      "name": "floatBufferViews",
      "target": 34962
    },
    {
      "buffer": 0,
      "byteLength": 46656,
      "byteOffset": 27744,
      "byteStride": 12,
      "name": "floatBufferViews",
      "target": 34962
    }
  ],
  "buffers": [
    {
      "byteLength": 74400,
      "uri": "scene.bin"
    }
  ],
  "materials": [
    {
      "doubleSided": true,
      "emissiveFactor": [
        0.13068710076842094,
        0.5541756039142636,
        0.04556235431525248
      ],
      "name": "Scene_-_Root",
      "pbrMetallicRoughness": {
        "baseColorFactor": [
          0.11962991858669915,
          1.0,
          0.0,
          1.0
        ],
        "metallicFactor": 0.0,
        "roughnessFactor": 0.6
      }
    }
  ],
  "meshes": [
    {
      "name": "Cube__0",
      "primitives": [
        {
          "attributes": {
            "NORMAL": 1,
            "POSITION": 0,
            "TEXCOORD_0": 2
          },
          "indices": 3,
          "material": 0,
          "mode": 4
        }
      ]
    },
    {
      "name": "Cube.001__0",
      "primitives": [
        {
          "attributes": {
            "NORMAL": 5,
            "POSITION": 4,
            "TEXCOORD_0": 6
          },
          "indices": 7,
          "material": 0,
          "mode": 4
        }
      ]
    },
    {
      "name": "Cube.002__0",
      "primitives": [
        {
          "attributes": {
            "NORMAL": 9,
            "POSITION": 8,
            "TEXCOORD_0": 10
          },
          "indices": 11,
          "material": 0,
          "mode": 4
        }
      ]
    },
    {
      "name": "Cube.003__0",
      "primitives": [
        {
          "attributes": {
            "NORMAL": 13,
            "POSITION": 12,
            "TEXCOORD_0": 14
          },
          "indices": 15,
          "material": 0,
          "mode": 4
        }
      ]
    },
    {
      "name": "Cube.004__0",
      "primitives": [
        {
          "attributes": {
            "NORMAL": 17,
            "POSITION": 16,
            "TEXCOORD_0": 18
          },
          "indices": 19,
          "material": 0,
          "mode": 4
        }
      ]
    },
    {
      "name": "Cube.005__0",
      "primitives": [
        {
          "attributes": {
            "NORMAL": 21,
            "POSITION": 20,
            "TEXCOORD_0": 22
          },
          "indices": 23,
          "material": 0,
          "mode": 4
        }
      ]
    },
    {
      "name": "Cube.006__0",
      "primitives": [
        {
          "attributes": {
            "NORMAL": 25,
            "POSITION": 24,
            "TEXCOORD_0": 26
          },
          "indices": 27,
          "material": 0,
          "mode": 4
        }
      ]
    },
    {
      "name": "Cube.007__0",
      "primitives": [
        {
          "attributes": {
            "NORMAL": 29,
            "POSITION": 28,
            "TEXCOORD_0": 30
          },
          "indices": 31,
          "material": 0,
          "mode": 4
        }
      ]
    },
    {
      "name": "Cube.008__0",
      "primitives": [
        {
          "attributes": {
            "NORMAL": 33,
            "POSITION": 32,
            "TEXCOORD_0": 34
          },
          "indices": 35,
          "material": 0,
          "mode": 4
        }
      ]
    },
    {
      "name": "Cube.009__0",
      "primitives": [
        {
          "attributes": {
            "NORMAL": 37,
            "POSITION": 36,
            "TEXCOORD_0": 38
          },
          "indices": 39,
          "material": 0,
          "mode": 4
        }
      ]
    },
    {
      "name": "Cube.010__0",
      "primitives": [
        {
          "attributes": {
            "NORMAL": 41,
            "POSITION": 40,
            "TEXCOORD_0": 42
          },
          "indices": 43,
          "material": 0,
          "mode": 4
        }
      ]
    },
    {
      "name": "Cube.011__0",
      "primitives": [
        {
          "attributes": {
            "NORMAL": 45,
            "POSITION": 44,
            "TEXCOORD_0": 46
          },
          "indices": 47,
          "material": 0,
          "mode": 4
        }
      ]
    }
  ],
  "nodes": [
    {
      "children": [
        1
      ],
      "matrix": [
        1.0,
        0.0,
        0.0,
        0.0,
        0.0,
        2.220446049250313e-16,
        -1.0,
        0.0,
        0.0,
        1.0,
        2.220446049250313e-16,
        0.0,
        0.0,
        0.0,
        0.0,
        1.0
      ],
      "name": "Sketchfab_model"
    },
    {
      "children": [
        2
      ],
      "matrix": [
        0.009999999776482582,
        0.0,
        0.0,
        0.0,
        0.0,
        0.0,
        0.009999999776482582,
        0.0,
        0.0,
        -0.009999999776482582,
        0.0,
        0.0,
        0.0,
        0.0,
        0.0,
        1.0
      ],
      "name": "635ff8dfa029465fb2f2e1863f039fc1.fbx"
    },
    {
      "children": [
        3,
        5,
        7,
        9,
        11,
        13,
        15,
        17,
        19,
        21,
        23,
        25
      ],
      "name": "RootNode"
    },
    {
      "children": [
        4
      ],
      "matrix": [
        90.0,
        0.0,
        0.0,
        0.0,
        0.0,
        -1.4662861145264827e-05,
        -89.9999999999988,
        0.0,
        0.0,
        89.9999999999988,
        -1.4662861145264827e-05,
        0.0,
        0.0,
        0.0,
        0.0,
        1.0
      ],
      "name": "Cube"
    },
    {
      "mesh": 0,
      "name": "Cube__0"
    },
    {
      "children": [
        6
      ],
      "matrix": [
        63.639612709117635,
        -63.639607904460725,
        3.504475105109428e-06,
        0.0,
        -3.037375151393462e-07,
        -5.259813944391567e-06,
        -89.99999999999984,
        0.0,
        63.63960790446082,
        63.639612709117515,
        -3.934025105678529e-06,
        0.0,
        -1500.0,
        -500.0,
        0.0,
        1.0
      ],
      "name": "Cube.001"
    },
    {
      "mesh": 1,
      "name": "Cube.001__0"
    },
    {
      "children": [
        8
      ],
      "matrix": [
        90.0,
        0.0,
        0.0,
        0.0,
        0.0,
        -1.4662861145264827e-05,
        -89.9999999999988,
        0.0,
        0.0,
        89.9999999999988,
        -1.4662861145264827e-05,
        0.0,
        0.0,
        0.0,
        0.0,
        1.0
      ],
      "name": "Cube.002"
    },
    {
      "mesh": 2,
      "name": "Cube.002__0"
    },
    {
      "children": [
        10
      ],
      "matrix": [
        90.0,
        0.0,
        0.0,
        0.0,
        0.0,
        -1.4662861145264827e-05,
        -89.9999999999988,
        0.0,
        0.0,
        89.9999999999988,
        -1.4662861145264827e-05,
        0.0,
        0.0,
        0.0,
        0.0,
        1.0
      ],
      "name": "Cube.003"
    },
    {
      "mesh": 3,
      "name": "Cube.003__0"
    },
    {
      "children": [
        12
      ],
      "matrix": [
        90.0,
        0.0,
        0.0,
        0.0,
        0.0,
        -1.4662861145264827e-05,
        -89.9999999999988,
        0.0,
        0.0,
        89.9999999999988,
        -1.4662861145264827e-05,
        0.0,
        0.0,
        0.0,
        0.0,
        1.0
      ],
      "name": "Cube.004"
    },
    {
      "mesh": 4,
      "name": "Cube.004__0"
    },
    {
      "children": [
        14
      ],
      "matrix": [
        90.0,
        0.0,
        0.0,
        0.0,
        0.0,
        -1.4662861145264827e-05,
        -89.9999999999988,
        0.0,
        0.0,
        89.9999999999988,
        -1.4662861145264827e-05,
        0.0,
        0.0,
        0.0,
        0.0,
        1.0
      ],
      "name": "Cube.005"
    },
    {
      "mesh": 5,
      "name": "Cube.005__0"
    },
    {
      "children": [
        16
      ],
      "matrix": [
        90.0,
        0.0,
        0.0,
        0.0,
        0.0,
        -1.4662861145264827e-05,
        -89.9999999999988,
        0.0,
        0.0,
        89.9999999999988,
        -1.4662861145264827e-05,
        0.0,
        0.0,
        0.0,
        0.0,
        1.0
      ],
      "name": "Cube.006"
    },
    {
      "mesh": 6,
      "name": "Cube.006__0"
    },
    {
      "children": [
        18
      ],
      "matrix": [
        90.0,
        0.0,
        0.0,
        0.0,
        0.0,
        -1.4662861145264827e-05,
        -89.9999999999988,
        0.0,
        0.0,
        89.9999999999988,
        -1.4662861145264827e-05,
        0.0,
        0.0,
        0.0,
        0.0,
        1.0
      ],
      "name": "Cube.007"
    },
    {
      "mesh": 7,
      "name": "Cube.007__0"
    },
    {
      "children": [
        20
      ],
      "matrix": [
        90.0,
        0.0,
        0.0,
        0.0,
        0.0,
        -1.4662861145264827e-05,
        -89.9999999999988,
        0.0,
        0.0,
        89.9999999999988,
        -1.4662861145264827e-05,
        0.0,
        0.0,
        0.0,
        0.0,
        1.0
      ],
      "name": "Cube.008"
    },
    {
      "mesh": 8,
      "name": "Cube.008__0"
    },
    {
      "children": [
        22
      ],
      "matrix": [
        90.0,
        0.0,
        0.0,
        0.0,
        0.0,
        -1.4662861145264827e-05,
        -89.9999999999988,
        0.0,
        0.0,
        89.9999999999988,
        -1.4662861145264827e-05,
        0.0,
        0.0,
        0.0,
        0.0,
        1.0
      ],
      "name": "Cube.009"
    },
    {
      "mesh": 9,
      "name": "Cube.009__0"
    },
    {
      "children": [
        24
      ],
      "matrix": [
        90.0,
        0.0,
        0.0,
        0.0,
        0.0,
        -1.4662861145264827e-05,
        -89.9999999999988,
        0.0,
        0.0,
        89.9999999999988,
        -1.4662861145264827e-05,
        0.0,
        0.0,
        0.0,
        0.0,
        1.0
      ],
      "name": "Cube.010"
    },
    {
      "mesh": 10,
      "name": "Cube.010__0"
    },
    {
      "children": [
        26
      ],
      "matrix": [
        63.639612709117635,
        -63.639607904460725,
        3.504475105109428e-06,
        0.0,
        -3.037375151393462e-07,
        -5.259813944391567e-06,
        -89.99999999999984,
        0.0,
        63.63960790446082,
        63.639612709117515,
        -3.934025105678529e-06,
        0.0,
        14500.0,
        -500.0,
        0.0,
        1.0
      ],
      "name": "Cube.011"
    },
    {
      "mesh": 11,
      "name": "Cube.011__0"
    }
  ],
  "scene": 0,
  "scenes": [
    {
      "name": "Sketchfab_Scene",
      "nodes": [
        0
      ]
    }
  ]
}
