{
  "accessors": [
    {
      "bufferView": 1,
      "componentType": 5126,
      "count": 2617,
      "max": [
        28.409500122070313,
        -2.7786800861358643,
        5.321929931640625
      ],
      "min": [
        11.107500076293945,
        -27.27669906616211,
        0.0018019300187006593
      ],
      "type": "VEC3"
    },
    {
      "bufferView": 1,
      "byteOffset": 31404,
      "componentType": 5126,
      "count": 2617,
      "max": [
        0.9999345541000366,
        0.9999239444732666,
        0.9999963641166687
      ],
      "min": [
        -0.9998728036880493,
        -0.9997695684432983,
        -1.0
      ],
      "type": "VEC3"
    },
    {
      "bufferView": 0,
      "componentType": 5125,
      "count": 15498,
      "type": "SCALAR"
    },
    {
      "bufferView": 1,
      "byteOffset": 62808,
      "componentType": 5126,
      "count": 1919,
      "max": [
        -33.527000427246094,
        27.356399536132813,
        5.367959976196289
      ],
      "min": [
        -51.249000549316406,
        2.216370105743408,
        -0.0001665900053922087
      ],
      "type": "VEC3"
    },
    {
      "bufferView": 1,
      "byteOffset": 85836,
      "componentType": 5126,
      "count": 1919,
      "max": [
        1.0,
        0.9998835325241089,
        0.999992847442627
      ],
      "min": [
        -0.9999494552612305,
        -0.9999822974205017,
        -0.9999985098838806
      ],
      "type": "VEC3"
    },
    {
      "bufferView": 0,
      "byteOffset": 61992,
      "componentType": 5125,
      "count": 11046,
      "type": "SCALAR"
    },
    {
      "bufferView": 1,
      "byteOffset": 108864,
      "componentType": 5126,
      "count": 431,
      "max": [
        -13.532600402832031,
        27.108699798583984,
        5.321559906005859
      ],
      "min": [
        -29.328899383544922,
        2.464600086212158,
        0.001457170001231134
      ],
      "type": "VEC3"
    },
    {
      "bufferView": 1,
      "byteOffset": 114036,
      "componentType": 5126,
      "count": 431,
      "max": [
        0.9999200701713562,
        0.9999255537986755,
        0.9998353123664856
      ],
      "min": [
        -0.999983012676239,
        -0.9999683499336243,
        -1.0
      ],
      "type": "VEC3"
    },
    {
      "bufferView": 0,
      "byteOffset": 106176,
      "componentType": 5125,
      "count": 2424,
      "type": "SCALAR"
    },
    {
      "bufferView": 1,
      "byteOffset": 119208,
      "componentType": 5126,
      "count": 850,
      "max": [
        7.636899948120117,
        27.030000686645508,
        5.321040153503418
      ],
      "min": [
        -9.16316032409668,
        2.5418899059295654,
        0.000902859028428793
      ],
      "type": "VEC3"
    },
    {
      "bufferView": 1,
      "byteOffset": 129408,
      "componentType": 5126,
      "count": 850,
      "max": [
        0.9998957514762878,
        0.9999995827674866,
        1.0
      ],
      "min": [
        -0.9997302293777466,
        -0.9999651908874512,
        -0.9999992847442627
      ],
      "type": "VEC3"
    },
    {
      "bufferView": 0,
      "byteOffset": 115872,
      "componentType": 5125,
      "count": 5034,
      "type": "SCALAR"
    },
    {
      "bufferView": 1,
      "byteOffset": 139608,
      "componentType": 5126,
      "count": 1882,
      "max": [
        28.15329933166504,
        27.016399383544922,
        5.3202900886535645
      ],
      "min": [
        11.363200187683105,
        2.556349992752075,
        0.000172760002897121
      ],
      "type": "VEC3"
    },
    {
      "bufferView": 1,
      "byteOffset": 162192,
      "componentType": 5126,
      "count": 1882,
      "max": [
        0.9998860359191895,
        0.9999616146087646,
        0.9998790621757507
      ],
      "min": [
        -0.9999962449073792,
        -0.9998345971107483,
        -1.0
      ],
      "type": "VEC3"
    },
    {
      "bufferView": 0,
      "byteOffset": 136008,
      "componentType": 5125,
      "count": 11130,
      "type": "SCALAR"
    },
    {
      "bufferView": 1,
      "byteOffset": 184776,
      "componentType": 5126,
      "count": 443,
      "max": [
        51.249298095703125,
        27.036800384521484,
        5.321070194244385
      ],
      "min": [
        31.651199340820313,
        2.5367000102996826,
        0.0009274230105802417
      ],
      "type": "VEC3"
    },
    {
      "bufferView": 1,
      "byteOffset": 190092,
      "componentType": 5126,
      "count": 443,
      "max": [
        0.9999377727508545,
        0.9999322891235352,
        0.9985223412513733
      ],
      "min": [
        -0.9999900460243225,
        -0.9999321699142456,
        -1.0
      ],
      "type": "VEC3"
    },
    {
      "bufferView": 0,
      "byteOffset": 180528,
      "componentType": 5125,
      "count": 2382,
      "type": "SCALAR"
    },
    {
      "bufferView": 1,
      "byteOffset": 195408,
      "componentType": 5126,
      "count": 1479,
      "max": [
        -33.935298919677734,
        -2.7464799880981445,
        5.411069869995117
      ],
      "min": [
        -50.839298248291016,
        -27.31060028076172,
        0.0009499490261077881
      ],
      "type": "VEC3"
    },
    {
      "bufferView": 1,
      "byteOffset": 213156,
      "componentType": 5126,
      "count": 1479,
      "max": [
        0.9999918341636658,
        0.9999827146530151,
        0.9999967813491821
      ],
      "min": [
        -0.9999238848686218,
        -0.9999919533729553,
        -1.0
      ],
      "type": "VEC3"
    },
    {
      "bufferView": 0,
      "byteOffset": 190056,
      "componentType": 5125,
      "count": 8694,
      "type": "SCALAR"
    },
    {
      "bufferView": 1,
      "byteOffset": 230904,
      "componentType": 5126,
      "count": 2022,
      "max": [
        -12.726900100708008,
        -2.734260082244873,
        5.3204498291015625
      ],
      "min": [
        -30.132999420166016,
        -27.32229995727539,
        0.0003396419924683869
      ],
      "type": "VEC3"
    },
    {
      "bufferView": 1,
      "byteOffset": 255168,
      "componentType": 5126,
      "count": 2022,
      "max": [
        0.9998753666877747,
        0.9999133348464966,
        0.9998534321784973
      ],
      "min": [
        -0.9999625086784363,
        -0.9999916553497314,
        -0.9999998211860657
      ],
      "type": "VEC3"
    },
    {
      "bufferView": 0,
      "byteOffset": 224832,
      "componentType": 5125,
      "count": 11796,
      "type": "SCALAR"
    },
    {
      "bufferView": 1,
      "byteOffset": 279432,
      "componentType": 5126,
      "count": 318,
      "max": [
        8.337160110473633,
        -2.778870105743408,
        5.321300029754639
      ],
      "min": [
        -9.862899780273438,
        -27.27910041809082,
        0.0011670100502669811
      ],
      "type": "VEC3"
    },
    {
      "bufferView": 1,
      "byteOffset": 283248,
      "componentType": 5126,
      "count": 318,
      "max": [
        0.9998942017555237,
        0.9998829960823059,
        0.9891098141670227
      ],
      "min": [
        -0.9999160170555115,
        -0.9999934434890747,
        -1.0
      ],
      "type": "VEC3"
    },
    {
      "bufferView": 0,
      "byteOffset": 272016,
      "componentType": 5125,
      "count": 1848,
      "type": "SCALAR"
    },
    {
      "bufferView": 1,
      "byteOffset": 287064,
      "componentType": 5126,
      "count": 2171,
      "max": [
        49.645599365234375,
        -2.700309991836548,
        5.322189807891846
      ],
      "min": [
        32.259498596191406,
        -27.354400634765625,
        8.050120231928304e-05
      ],
      "type": "VEC3"
    },
    {
      "bufferView": 1,
      "byteOffset": 313116,
      "componentType": 5126,
      "count": 2171,
      "max": [
        0.9998509287834167,
        0.9999979138374329,
        1.0
      ],
      "min": [
        -0.9999702572822571,
        -0.9999364614486694,
        -1.0
      ],
      "type": "VEC3"
    },
    {
      "bufferView": 0,
      "byteOffset": 279408,
      "componentType": 5125,
      "count": 12324,
      "type": "SCALAR"
    },
    {
      "bufferView": 1,
      "byteOffset": 339168,
      "componentType": 5126,
      "count": 1919,
      "max": [
        -33.527000427246094,
        27.356399536132813,
        5.367959976196289
      ],
      "min": [
        -51.249000549316406,
        2.216370105743408,
        -0.0001665900053922087
      ],
      "type": "VEC3"
    },
    {
      "bufferView": 1,
      "byteOffset": 362196,
      "componentType": 5126,
      "count": 1919,
      "max": [
        1.0,
        0.9998835325241089,
        0.999992847442627
      ],
      "min": [
        -0.9999494552612305,
        -0.9999822974205017,
        -0.9999985098838806
      ],
      "type": "VEC3"
    },
    {
      "bufferView": 2,
      "componentType": 5126,
      "count": 1919,
      "max": [
        0.0,
        0.8117647171020508,
        0.7215686440467834,
        1.0
      ],
      "min": [
        0.0,
        0.8117647171020508,
        0.7215686440467834,
        1.0
      ],
      "type": "VEC4"
    },
    {
      "bufferView": 0,
      "byteOffset": 328704,
      "componentType": 5125,
      "count": 11046,
      "type": "SCALAR"
    },
    {
      "bufferView": 1,
      "byteOffset": 385224,
      "componentType": 5126,
      "count": 431,
      "max": [
        -13.532600402832031,
        27.108699798583984,
        5.321559906005859
      ],
      "min": [
        -29.328899383544922,
        2.464600086212158,
        0.001457170001231134
      ],
      "type": "VEC3"
    },
    {
      "bufferView": 1,
      "byteOffset": 390396,
      "componentType": 5126,
      "count": 431,
      "max": [
        0.9999200701713562,
        0.9999255537986755,
        0.9998353123664856
      ],
      "min": [
        -0.999983012676239,
        -0.9999683499336243,
        -1.0
      ],
      "type": "VEC3"
    },
    {
      "bufferView": 2,
      "byteOffset": 30704,
      "componentType": 5126,
      "count": 431,
      "max": [
        0.0,
        0.8117647171020508,
        0.7215686440467834,
        1.0
      ],
      "min": [
        0.0,
        0.8117647171020508,
        0.7215686440467834,
        1.0
      ],
      "type": "VEC4"
    },
    {
      "bufferView": 0,
      "byteOffset": 372888,
      "componentType": 5125,
      "count": 2424,
      "type": "SCALAR"
    }
  ],
  "asset": {
    "extras": {
      "author": "penielnwamba (https://sketchfab.com/penielnwamba)",
      "license": "CC-BY-4.0 (http://creativecommons.org/licenses/by/4.0/)",
      "source": "https://sketchfab.com/3d-models/printable-numbers-15538d9facad45cf8eff00ed62fb7a1d",
      "title": "Printable Numbers"
    },
    "generator": "Sketchfab-15.37.0",
    "version": "2.0"
  },
  "bufferViews": [
    {
      "buffer": 0,
      "byteLength": 382584,
      "name": "floatBufferViews",
      "target": 34963
    },
    {
      "buffer": 0,
      "byteLength": 395568,
      "byteOffset": 382584,
      "byteStride": 12,
      "name": "floatBufferViews",
      "target": 34962
    },
    {
      "buffer": 0,
      "byteLength": 37600,
      "byteOffset": 778152,
      "byteStride": 16,
      "name": "floatBufferViews",
      "target": 34962
    }
  ],
  "buffers": [
    {
      "byteLength": 815752,
      "uri": "scene.bin"
    }
  ],
  "extensionsRequired": [
    "KHR_materials_pbrSpecularGlossiness"
  ],
  "extensionsUsed": [
    "KHR_materials_pbrSpecularGlossiness"
  ],
  "materials": [
    {
      "doubleSided": true,
      "extensions": {
        "KHR_materials_pbrSpecularGlossiness": {
          "diffuseFactor": [
            0.0111261,
            0.505432,
            0.0697271,
            1.0
          ],
          "glossinessFactor": 1.0,
          "specularFactor": [
            0.0,
            0.0,
            0.0
          ]
        }
      },
      "name": "material_0"
    },
    {
      "doubleSided": true,
      "extensions": {
        "KHR_materials_pbrSpecularGlossiness": {
          "diffuseFactor": [
            0.0,
            0.358654,
            0.812242,
            1.0
          ],
          "glossinessFactor": 1.0,
          "specularFactor": [
            0.0,
            0.0,
            0.0
          ]
        }
      },
      "name": "material_1"
    },
    {
      "doubleSided": true,
      "extensions": {
        "KHR_materials_pbrSpecularGlossiness": {
          "diffuseFactor": [
            1.0,
            1.0,
            1.0,
            1.0
          ],
          "glossinessFactor": 1.0,
          "specularFactor": [
            0.0,
            0.0,
            0.0
          ]
        }
      },
      "name": "material_2"
    }
  ],
  "meshes": [
    {
      "name": "Object_0",
      "primitives": [
        {
          "attributes": {
            "NORMAL": 1,
            "POSITION": 0
          },
          "indices": 2,
          "material": 0,
          "mode": 4
        }
      ]
    },
    {
      "name": "Object_1",
      "primitives": [
        {
          "attributes": {
            "NORMAL": 4,
            "POSITION": 3
          },
          "indices": 5,
          "material": 1,
          "mode": 4
        }
      ]
    },
    {
      "name": "Object_2",
      "primitives": [
        {
          "attributes": {
            "NORMAL": 7,
            "POSITION": 6
          },
          "indices": 8,
          "material": 1,
          "mode": 4
        }
      ]
    },
    {
      "name": "Object_3",
      "primitives": [
        {
          "attributes": {
            "NORMAL": 10,
            "POSITION": 9
          },
          "indices": 11,
          "material": 1,
          "mode": 4
        }
      ]
    },
    {
      "name": "Object_4",
      "primitives": [
        {
          "attributes": {
            "NORMAL": 13,
            "POSITION": 12
          },
          "indices": 14,
          "material": 1,
          "mode": 4
        }
      ]
    },
    {
      "name": "Object_5",
      "primitives": [
        {
          "attributes": {
            "NORMAL": 16,
            "POSITION": 15
          },
          "indices": 17,
          "material": 1,
          "mode": 4
        }
      ]
    },
    {
      "name": "Object_6",
      "primitives": [
        {
          "attributes": {
            "NORMAL": 19,
            "POSITION": 18
          },
          "indices": 20,
          "material": 0,
          "mode": 4
        }
      ]
    },
    {
      "name": "Object_7",
      "primitives": [
        {
          "attributes": {
            "NORMAL": 22,
            "POSITION": 21
          },
          "indices": 23,
          "material": 0,
          "mode": 4
        }
      ]
    },
    {
      "name": "Object_8",
      "primitives": [
        {
          "attributes": {
            "NORMAL": 25,
            "POSITION": 24
          },
          "indices": 26,
          "material": 0,
          "mode": 4
        }
      ]
    },
    {
      "name": "Object_9",
      "primitives": [
        {
          "attributes": {
            "NORMAL": 28,
            "POSITION": 27
          },
          "indices": 29,
          "material": 0,
          "mode": 4
        }
      ]
    },
    {
      "name": "Object_10",
      "primitives": [
        {
          "attributes": {
            "COLOR_0": 32,
            "NORMAL": 31,
            "POSITION": 30
          },
          "indices": 33,
          "material": 2,
          "mode": 4
        }
      ]
    },
    {
      "name": "Object_11",
      "primitives": [
        {
          "attributes": {
            "COLOR_0": 36,
            "NORMAL": 35,
            "POSITION": 34
          },
          "indices": 37,
          "material": 2,
          "mode": 4
        }
      ]
    }
  ],
  "nodes": [
    {
      "children": [
        1
      ],
      "matrix": [
        1.0,
        0.0,
        0.0,
        0.0,
        0.0,
        2.220446049250313e-16,
        -1.0,
        0.0,
        0.0,
        1.0,
        2.220446049250313e-16,
        0.0,
        0.0,
        0.0,
        0.0,
        1.0
      ],
      "name": "Sketchfab_model"
    },
    {
      "children": [
        2
      ],
      "name": "root"
    },
    {
      "children": [
        3,
        5,
        7,
        9,
        11,
        13,
        15,
        17,
        19,
        21,
        23,
        25
      ],
      "matrix": [
        1.0,
        0.0,
        0.0,
        0.0,
        0.0,
        2.220446049250313e-16,
        1.0,
        0.0,
        0.0,
        -1.0,
        2.220446049250313e-16,
        0.0,
        0.0,
        0.0,
        0.0,
        1.0
      ],
      "name": "GLTF_SceneRootNode"
    },
    {
      "children": [
        4
      ],
      "matrix": [
        1.0,
        0.0,
        0.0,
        0.0,
        0.0,
        0.0,
        -1.0,
        0.0,
        0.0,
        1.0,
        0.0,
        0.0,
        -0.00013020000187680125,
        0.0001665900053922087,
        0.0010082999942824244,
        1.0
      ],
      "name": "3MFMeshParent_0_0"
    },
    {
      "mesh": 0,
      "name": "Object_4"
    },
    {
      "children": [
        6
      ],
      "matrix": [
        1.0,
        0.0,
        0.0,
        0.0,
        0.0,
        0.0,
        -1.0,
        0.0,
        0.0,
        1.0,
        0.0,
        0.0,
        -0.00013020000187680125,
        0.0001665900053922087,
        0.0010082999942824244,
        1.0
      ],
      "name": "3MFMeshParent_1_1"
    },
    {
      "mesh": 1,
      "name": "Object_6"
    },
    {
      "children": [
        8
      ],
      "matrix": [
        1.0,
        0.0,
        0.0,
        0.0,
        0.0,
        0.0,
        -1.0,
        0.0,
        0.0,
        1.0,
        0.0,
        0.0,
        -0.00013020000187680125,
        0.0001665900053922087,
        0.0010082999942824244,
        1.0
      ],
      "name": "3MFMeshParent_2_2"
    },
    {
      "mesh": 2,
      "name": "Object_8"
    },
    {
      "children": [
        10
      ],
      "matrix": [
        1.0,
        0.0,
        0.0,
        0.0,
        0.0,
        0.0,
        -1.0,
        0.0,
        0.0,
        1.0,
        0.0,
        0.0,
        -0.00013020000187680125,
        0.0001665900053922087,
        0.0010082999942824244,
        1.0
      ],
      "name": "3MFMeshParent_3_3"
    },
    {
      "mesh": 3,
      "name": "Object_10"
    },
    {
      "children": [
        12
      ],
      "matrix": [
        1.0,
        0.0,
        0.0,
        0.0,
        0.0,
        0.0,
        -1.0,
        0.0,
        0.0,
        1.0,
        0.0,
        0.0,
        -0.00013020000187680125,
        0.0001665900053922087,
        0.0010082999942824244,
        1.0
      ],
      "name": "3MFMeshParent_4_4"
    },
    {
      "mesh": 4,
      "name": "Object_12"
    },
    {
      "children": [
        14
      ],
      "matrix": [
        1.0,
        0.0,
        0.0,
        0.0,
        0.0,
        0.0,
        -1.0,
        0.0,
        0.0,
        1.0,
        0.0,
        0.0,
        -0.00013020000187680125,
        0.0001665900053922087,
        0.0010082999942824244,
        1.0
      ],
      "name": "3MFMeshParent_5_5"
    },
    {
      "mesh": 5,
      "name": "Object_14"
    },
    {
      "children": [
        16
      ],
      "matrix": [
        1.0,
        0.0,
        0.0,
        0.0,
        0.0,
        0.0,
        -1.0,
        0.0,
        0.0,
        1.0,
        0.0,
        0.0,
        -0.00013020000187680125,
        0.0001665900053922087,
        0.0010082999942824244,
        1.0
      ],
      "name": "3MFMeshParent_6_6"
    },
    {
      "mesh": 6,
      "name": "Object_16"
    },
    {
      "children": [
        18
      ],
      "matrix": [
        1.0,
        0.0,
        0.0,
        0.0,
        0.0,
        0.0,
        -1.0,
        0.0,
        0.0,
        1.0,
        0.0,
        0.0,
        -0.00013020000187680125,
        0.0001665900053922087,
        0.0010082999942824244,
        1.0
      ],
      "name": "3MFMeshParent_7_7"
    },
    {
      "mesh": 7,
      "name": "Object_18"
    },
    {
      "children": [
        20
      ],
      "matrix": [
        1.0,
        0.0,
        0.0,
        0.0,
        0.0,
        0.0,
        -1.0,
        0.0,
        0.0,
        1.0,
        0.0,
        0.0,
        -0.00013020000187680125,
        0.0001665900053922087,
        0.0010082999942824244,
        1.0
      ],
      "name": "3MFMeshParent_8_8"
    },
    {
      "mesh": 8,
      "name": "Object_20"
    },
    {
      "children": [
        22
      ],
      "matrix": [
        1.0,
        0.0,
        0.0,
        0.0,
        0.0,
        0.0,
        -1.0,
        0.0,
        0.0,
        1.0,
        0.0,
        0.0,
        -0.00013020000187680125,
        0.0001665900053922087,
        0.0010082999942824244,
        1.0
      ],
      "name": "3MFMeshParent_9_9"
    },
    {
      "mesh": 9,
      "name": "Object_22"
    },
    {
      "children": [
        24
      ],
      "matrix": [
        1.0,
        0.0,
        0.0,
        0.0,
        0.0,
        0.0,
        -1.0,
        0.0,
        0.0,
        1.0,
        0.0,
        0.0,
        50.9202995300293,
        -0.04750379920005798,
        57.22169876098633,
        1.0
      ],
      "name": "3MFMeshParent_10_10"
    },
    {
      "mesh": 10,
      "name": "Object_24"
    },
    {
      "children": [
        26
      ],
      "matrix": [
        1.0,
        0.0,
        0.0,
        0.0,
        0.0,
        0.0,
        -1.0,
        0.0,
        0.0,
        1.0,
        0.0,
        0.0,
        10.409600257873535,
        -0.04750379920005798,
        57.22169876098633,
        1.0
      ],
      "name": "3MFMeshParent_11_11"
    },
    {
      "mesh": 11,
      "name": "Object_26"
    }
  ],
  "scene": 0,
  "scenes": [
    {
      "name": "Sketchfab_Scene",
      "nodes": [
        0
      ]
    }
  ]
}
